# xmcd
#
# Track frame offsets:
#	150
#	55847
#	85287
#	100350
#	132367
#	157170
#
# Disc length: 2362 seconds
# Revision: 4
# Processed by: cddbd v1.5.2PL0 Copyright (c) Steve Scherf et al.
# Submitted via: dBpowerAMP V12.0
#
DISCID=4e093806
DTITLE=Albert King - Montreux Festival
DYEAR=1973
DGENRE=Blues
TTITLE0=In View
TTITLE1=Let Me Down Easy
TTITLE2=We're Gonna Make It
TTITLE3=Don't Make No Sense
TTITLE4=Stormy Monday
TTITLE5=For the Love of a Woman
EXTD=
EXTT0=
EXTT1=
EXTT2=
EXTT3=
EXTT4=
EXTT5=
PLAYORDER=
